<?xml version="1.0" encoding="UTF-8"?><svg id="Capa_1" xmlns="http://www.w3.org/2000/svg" xmlns:xlink="http://www.w3.org/1999/xlink" viewBox="0 0 600 600"><defs><style>.cls-1{fill:url(#Degradado_sin_nombre_16);}.cls-2{fill:#008296;}.cls-3{fill:#31003c;}</style><linearGradient id="Degradado_sin_nombre_16" x1="136.11" y1="442.26" x2="400.14" y2="428.02" gradientUnits="userSpaceOnUse"><stop offset=".21" stop-color="#31003c"/><stop offset=".29" stop-color="#2e0640"/><stop offset=".38" stop-color="#28174c"/><stop offset=".5" stop-color="#1d335f"/><stop offset=".62" stop-color="#0e5b7b"/><stop offset=".73" stop-color="#008296"/></linearGradient></defs><path class="cls-2" d="M395.98,586.35c69.55,31.66,98.8-1.51,93.93-2.68-41.96-10.07-81.41-50.92-95.56-88.34-20.33-53.79-22.37-138.43-18.04-170.62-.89-7.21-45,26.16-45,26.16-9.04,49.77-12.36,200.44,64.66,235.49Z"/><path class="cls-3" d="M251.02,390.7l4.18-17.47,1.23-4.97c1.02-4.11,2.05-8.24,3.12-12.47,2.89-11.43,13.01-54.67,21.93-92.83,5.86-25.07,11.01-47.04,12.69-53.95,3.95-16.25,7.41-31.14,10.28-44.25l.24-1.08.47-2.14c.89-14.5,2.05-28.95,4.62-43.13-7.12-2.61-15.14-3.59-24.12-1.94-8.8,1.62-33.37,26.32-33.81,27.37l-.27.77h0c-2.84,4.22-26.09,84.59-32.26,109.48-5.61,22.65-11.41,44.82-17.23,65.89-5.54,20.06-30.61,132.99-35.57,155.44-.32,1.43-.6,2.8-.88,4.13,28.12-46.52,85.36-88.85,85.36-88.85Z"/><path class="cls-3" d="M327.6,223.22c1.5,16.32,2.23,34.33,2.17,53.49-.03,8.97-.05,17.82-.06,26.68,13.55-11.89,27.06-24.82,39.75-38.9,1.31-21.85,1.06-65.78-17.42-101.2-5.18-9.93-18.81-36.29-42.24-44.87-2.57,14.18-3.73,28.62-4.62,43.13l.08-.35,1.78,1.65.9.84c4.54,4.23,8.18,9.98,10.83,17.12,4.37,11.75,7.34,26.04,8.85,42.42Z"/><path class="cls-2" d="M499.25,101.19C474.36,7.08,397.56.59,363.46.04,191.33-2.74,95.21,158.35,95.04,219.68c-.25,87.36,60.35,88.39,62.73,86.24,0,0-12.12-33.74-11.71-45.47,5.17-148.67,130.06-237.22,200.59-237.22,82.9,0,108.99,57.37,107.27,98.85-3.86,92.88-66.99,159.54-124.98,207.45l-2.23,54.32c7.91-5.2,15.41-9.75,22.05-13.49,135.13-76.27,171.99-187.85,150.49-269.15Z"/><path class="cls-1" d="M251.02,390.7s-57.24,42.34-85.36,88.85c-2.08,10.18-2.89,17.64-2.41,22.19.82,7.86,4.77,14.7,11.75,20.33,7.24,5.89,15.04,10.46,23.16,13.59,7.6,2.93,14.6,4.43,20.8,4.43l1.16-.02c4.37-.13,6.15-1.13,6.88-1.97.35-.39.79-1.11.64-2.61-.76-7.26-.07-17.44,2.04-30.22.03-.16.59-3.59,1.5-9.03,7.35-44.82,56.53-86.76,95.54-112.4l2.23-54.32c-30.54,25.23-59.65,45.27-77.92,61.18Z"/></svg>