<svg width="26" height="26" viewBox="0 0 26 26" fill="none" xmlns="http://www.w3.org/2000/svg">
<path fill-rule="evenodd" clip-rule="evenodd" d="M10.2148 9.7165H14.2383V11.7207C14.8179 10.568 16.3042 9.53233 18.5369 9.53233C22.8172 9.53233 23.8334 11.8268 23.8334 16.0367V23.8334H19.5V16.9954C19.5 14.598 18.9204 13.246 17.4449 13.246C15.3985 13.246 14.5481 14.7031 14.5481 16.9943V23.8334H10.2148V9.7165ZM2.78419 23.6492H7.11752V9.53233H2.78419V23.6492ZM7.73827 4.92925C7.73843 5.29246 7.6664 5.65209 7.52636 5.98722C7.38632 6.32235 7.18106 6.6263 6.92252 6.88142C6.66321 7.13938 6.35562 7.34371 6.01731 7.48275C5.67901 7.62179 5.31662 7.69281 4.95085 7.69175C4.21376 7.69009 3.50668 7.39956 2.98135 6.8825C2.72385 6.62645 2.51935 6.32214 2.37956 5.98698C2.23977 5.65182 2.16743 5.29239 2.16669 4.92925C2.16669 4.19583 2.45919 3.49383 2.98244 2.976C3.50645 2.45695 4.21438 2.16607 4.95194 2.16675C5.69077 2.16675 6.39927 2.45817 6.92252 2.976C7.44577 3.49383 7.73827 4.19583 7.73827 4.92925Z" fill="#59588F"/>
</svg>
