<svg width="70" height="70" viewBox="0 0 70 70" fill="none" xmlns="http://www.w3.org/2000/svg">
<g clip-path="url(#clip0_26_12)">
<path fill-rule="evenodd" clip-rule="evenodd" d="M13.5625 2.1875C10.5457 2.1875 7.65239 3.38593 5.51916 5.51916C3.38593 7.65239 2.1875 10.5457 2.1875 13.5625V56.4375C2.1875 59.4543 3.38593 62.3476 5.51916 64.4808C7.65239 66.6141 10.5457 67.8125 13.5625 67.8125H56.4375C59.4543 67.8125 62.3476 66.6141 64.4808 64.4808C66.6141 62.3476 67.8125 59.4543 67.8125 56.4375V13.5625C67.8125 10.5457 66.6141 7.65239 64.4808 5.51916C62.3476 3.38593 59.4543 2.1875 56.4375 2.1875H13.5625ZM6.5625 13.5625C6.5625 11.706 7.3 9.92551 8.61275 8.61275C9.92551 7.3 11.706 6.5625 13.5625 6.5625H56.4375C58.294 6.5625 60.0745 7.3 61.3872 8.61275C62.7 9.92551 63.4375 11.706 63.4375 13.5625V56.4375C63.4375 58.294 62.7 60.0745 61.3872 61.3872C60.0745 62.7 58.294 63.4375 56.4375 63.4375H13.5625C11.706 63.4375 9.92551 62.7 8.61275 61.3872C7.3 60.0745 6.5625 58.294 6.5625 56.4375V13.5625ZM17.5 18.9583H27.7083C29.0489 18.9583 30.3764 19.2224 31.6149 19.7354C32.8534 20.2484 33.9788 21.0004 34.9267 21.9483C35.8746 22.8962 36.6266 24.0216 37.1396 25.2601C37.6526 26.4986 37.9167 27.8261 37.9167 29.1667C37.9167 30.5072 37.6526 31.8347 37.1396 33.0732C36.6266 34.3118 35.8746 35.4371 34.9267 36.385C33.9788 37.333 32.8534 38.0849 31.6149 38.5979C30.3764 39.111 29.0489 39.375 27.7083 39.375H23.3333V48.125H17.5V18.9583ZM23.3333 33.5417H27.7083C28.8687 33.5417 29.9815 33.0807 30.8019 32.2603C31.6224 31.4398 32.0833 30.327 32.0833 29.1667C32.0833 28.0063 31.6224 26.8935 30.8019 26.0731C29.9815 25.2526 28.8687 24.7917 27.7083 24.7917H23.3333V33.5417ZM42.2917 26.25V48.125H48.125V35.7292C48.6658 34.7583 49.4345 33.9335 50.365 33.3258C51.4646 32.62 53.0513 32.0833 55.4167 32.0833V26.25C52.57 26.25 50.1463 26.8217 48.125 27.8833V26.25H42.2917Z" fill="#9898B3"/>
</g>
<defs>
<clipPath id="clip0_26_12">
<rect width="70" height="70" fill="white"/>
</clipPath>
</defs>
</svg>
