<svg width="71" height="70" viewBox="0 0 71 70" fill="none" xmlns="http://www.w3.org/2000/svg">
<g clip-path="url(#clip0_29_67)">
<path d="M36.5 6.08337C19.7404 6.08337 6.08331 19.7405 6.08331 36.5C6.08331 53.2596 19.7404 66.9167 36.5 66.9167C53.2596 66.9167 66.9166 53.2596 66.9166 36.5C66.9166 19.7405 53.2596 6.08337 36.5 6.08337ZM9.1554 36.5C9.1554 32.5459 10.0071 28.7742 11.5279 25.3675L24.5766 61.1071C15.4516 56.6663 9.1554 47.3284 9.1554 36.5ZM36.5 63.8446C33.8233 63.8446 31.2379 63.4492 28.7741 62.7192L36.9866 38.8725L45.3816 61.898C45.4425 62.0196 45.5033 62.1717 45.5641 62.263C42.7354 63.2971 39.6937 63.8446 36.5 63.8446ZM40.2716 23.6642C41.9141 23.573 43.4046 23.3905 43.4046 23.3905C44.8646 23.208 44.7125 21.0484 43.2221 21.1396C43.2221 21.1396 38.7812 21.4742 35.9221 21.4742C33.2454 21.4742 28.7133 21.1396 28.7133 21.1396C27.2533 21.0788 27.0708 23.3296 28.5612 23.4209C28.5612 23.4209 29.9604 23.6034 31.4204 23.6946L35.6787 35.3746L29.6866 53.3205L19.7404 23.6642C21.3829 23.6034 22.8733 23.4209 22.8733 23.4209C24.3333 23.2384 24.1812 21.0788 22.6908 21.17C22.6908 21.17 18.25 21.5046 15.3908 21.5046C14.8737 21.5046 14.2654 21.5046 13.6266 21.4742C18.5541 14.0525 26.9491 9.15546 36.5 9.15546C43.6175 9.15546 50.0962 11.8625 54.9629 16.3338C54.8412 16.3338 54.7196 16.3034 54.5979 16.3034C51.9212 16.3034 50.005 18.6455 50.005 21.17C50.005 23.4209 51.3129 25.3371 52.6816 27.588C53.7158 29.413 54.9325 31.755 54.9325 35.1313C54.9325 37.4734 54.02 40.1805 52.8641 43.9825L50.1266 53.1075L40.2716 23.6642ZM60.4987 23.3905C63.9136 29.6434 64.7531 36.9821 62.8387 43.8447C60.9242 50.7073 56.4069 56.5516 50.2483 60.1338L58.6129 35.983C60.1641 32.0896 60.6812 28.9567 60.6812 26.1888C60.6812 25.185 60.6204 24.2421 60.4987 23.3905Z" fill="#9898B3"/>
</g>
<defs>
<clipPath id="clip0_29_67">
<rect width="71" height="70" fill="white"/>
</clipPath>
</defs>
</svg>
