<svg width="70" height="70" viewBox="0 0 70 70" fill="none" xmlns="http://www.w3.org/2000/svg">
<g clip-path="url(#clip0_26_11)">
<path fill-rule="evenodd" clip-rule="evenodd" d="M13.5625 2.1875C10.5457 2.1875 7.65239 3.38593 5.51916 5.51916C3.38593 7.65239 2.1875 10.5457 2.1875 13.5625V56.4375C2.1875 59.4543 3.38593 62.3476 5.51916 64.4808C7.65239 66.6141 10.5457 67.8125 13.5625 67.8125H56.4375C59.4543 67.8125 62.3476 66.6141 64.4808 64.4808C66.6141 62.3476 67.8125 59.4543 67.8125 56.4375V13.5625C67.8125 10.5457 66.6141 7.65239 64.4808 5.51916C62.3476 3.38593 59.4543 2.1875 56.4375 2.1875H13.5625ZM6.5625 13.5625C6.5625 11.706 7.3 9.92551 8.61275 8.61275C9.92551 7.3 11.706 6.5625 13.5625 6.5625H56.4375C58.294 6.5625 60.0745 7.3 61.3872 8.61275C62.7 9.92551 63.4375 11.706 63.4375 13.5625V56.4375C63.4375 58.294 62.7 60.0745 61.3872 61.3872C60.0745 62.7 58.294 63.4375 56.4375 63.4375H13.5625C11.706 63.4375 9.92551 62.7 8.61275 61.3872C7.3 60.0745 6.5625 58.294 6.5625 56.4375V13.5625ZM10.2433 48.0433L19.5592 21.42V19.495H26.9967L37.3042 48.0433H30.9167L28.49 41.3729H18.4013L16.1408 48.0433H10.2433ZM19.9996 35.6971H26.8333L23.4208 24.5642L19.9996 35.6971ZM56.3763 42.5833V47.5417C55.3642 47.95 52.5613 48.7579 49.4317 48.7579C45.5175 48.7579 38.4067 46.8825 38.4067 37.1263C38.4067 28.5279 44.7475 26.0487 49.4317 26.0487C53.62 26.0487 58.3042 29.1346 58.3042 35.0321V38.8908H44.7475C45.1325 40.4512 46.7629 43.575 50.2017 43.575C53.6404 43.575 55.7521 42.9129 56.3763 42.5833ZM44.8 34.7579H52.6838C52.5904 33.3988 51.6921 30.6775 48.825 30.6775C45.9579 30.6775 44.9458 33.3958 44.8 34.7579Z" fill="#9898B3"/>
</g>
<defs>
<clipPath id="clip0_26_11">
<rect width="70" height="70" fill="white"/>
</clipPath>
</defs>
</svg>
