<svg width="70" height="70" viewBox="0 0 70 70" fill="none" xmlns="http://www.w3.org/2000/svg">
<g clip-path="url(#clip0_9_158)">
<path fill-rule="evenodd" clip-rule="evenodd" d="M2.1875 13.5625C2.1875 10.5457 3.38593 7.65239 5.51916 5.51916C7.65239 3.38593 10.5457 2.1875 13.5625 2.1875H56.4375C59.4543 2.1875 62.3476 3.38593 64.4808 5.51916C66.6141 7.65239 67.8125 10.5457 67.8125 13.5625V56.4375C67.8125 59.4543 66.6141 62.3476 64.4808 64.4808C62.3476 66.6141 59.4543 67.8125 56.4375 67.8125H13.5625C10.5457 67.8125 7.65239 66.6141 5.51916 64.4808C3.38593 62.3476 2.1875 59.4543 2.1875 56.4375V13.5625ZM13.5625 6.5625C11.706 6.5625 9.92551 7.3 8.61275 8.61275C7.3 9.92551 6.5625 11.706 6.5625 13.5625V56.4375C6.5625 58.294 7.3 60.0745 8.61275 61.3872C9.92551 62.7 11.706 63.4375 13.5625 63.4375H56.4375C58.294 63.4375 60.0745 62.7 61.3872 61.3872C62.7 60.0745 63.4375 58.294 63.4375 56.4375V13.5625C63.4375 11.706 62.7 9.92551 61.3872 8.61275C60.0745 7.3 58.294 6.5625 56.4375 6.5625H13.5625ZM47.9733 25.2933C48.7469 25.2933 49.4888 24.986 50.0357 24.4391C50.5827 23.8921 50.89 23.1502 50.89 22.3767C50.89 21.6031 50.5827 20.8613 50.0357 20.3143C49.4888 19.7673 48.7469 19.46 47.9733 19.46C47.1998 19.46 46.4579 19.7673 45.9109 20.3143C45.364 20.8613 45.0567 21.6031 45.0567 22.3767C45.0567 23.1502 45.364 23.8921 45.9109 24.4391C46.4579 24.986 47.1998 25.2933 47.9733 25.2933ZM50.89 49.5017V28.4346H45.0567V49.5017H50.89ZM23.5375 22.8783L14.2217 49.5017H20.1192L22.3796 42.8313H32.4654L34.8921 49.5017H41.2854L30.975 20.9504H23.5375V22.8783ZM30.8117 37.1554H23.9779L27.3962 26.0225L30.8117 37.1554Z" fill="#9898B3"/>
</g>
<defs>
<clipPath id="clip0_9_158">
<rect width="70" height="70" fill="white"/>
</clipPath>
</defs>
</svg>
