<svg width="70" height="70" viewBox="0 0 70 70" fill="none" xmlns="http://www.w3.org/2000/svg">
<g clip-path="url(#clip0_26_9)">
<path fill-rule="evenodd" clip-rule="evenodd" d="M2.1875 13.5625C2.1875 10.5457 3.38593 7.65239 5.51916 5.51916C7.65239 3.38593 10.5457 2.1875 13.5625 2.1875H56.4375C59.4543 2.1875 62.3476 3.38593 64.4808 5.51916C66.6141 7.65239 67.8125 10.5457 67.8125 13.5625V56.4375C67.8125 59.4543 66.6141 62.3476 64.4808 64.4808C62.3476 66.6141 59.4543 67.8125 56.4375 67.8125H13.5625C10.5457 67.8125 7.65239 66.6141 5.51916 64.4808C3.38593 62.3476 2.1875 59.4543 2.1875 56.4375V13.5625ZM13.5625 6.5625C11.706 6.5625 9.92551 7.3 8.61275 8.61275C7.3 9.92551 6.5625 11.706 6.5625 13.5625V56.4375C6.5625 58.294 7.3 60.0745 8.61275 61.3872C9.92551 62.7 11.706 63.4375 13.5625 63.4375H56.4375C58.294 63.4375 60.0745 62.7 61.3872 61.3872C62.7 60.0745 63.4375 58.294 63.4375 56.4375V13.5625C63.4375 11.706 62.7 9.92551 61.3872 8.61275C60.0745 7.3 58.294 6.5625 56.4375 6.5625H13.5625ZM52.2812 33.9325C49.7817 33.3696 47.1333 32.9263 45.2142 33.0692C44.2429 33.1392 43.0033 33.4425 44.2517 34.4458C45.2812 35.2683 46.4975 35.7846 47.7167 36.2979C48.9708 36.8288 50.2308 37.3625 51.2983 38.2404C52.7887 39.4654 53.9583 41.2504 53.9583 43.75C53.9583 46.2438 52.78 48.1542 50.9017 49.2917C49.2421 50.295 47.2383 50.5808 45.5029 50.6246C42.6971 50.6946 39.6054 50.1346 37.3013 49.5688V43.5371C39.4246 44.1438 42.7204 44.8583 45.3571 44.7913C46.7279 44.7592 47.5358 44.5083 47.9033 44.2867C48.4867 43.9367 47.9558 43.0442 47.5971 42.7496C46.5704 41.9038 45.3367 41.3846 44.0971 40.8625C42.8721 40.3463 41.6413 39.8271 40.6029 38.9958C39.1154 37.8 37.9167 36.0354 37.9167 33.5417C37.9167 31.5146 38.7625 29.8083 40.3083 28.6854C41.685 27.6938 43.3533 27.3554 44.7796 27.2504C47.1858 27.0725 49.9625 27.4896 52.2812 27.965V33.9325ZM26.25 20.4167H16.0417V49.5833H21.875V40.8333H26.25C28.9574 40.8333 31.5539 39.7578 33.4684 37.8434C35.3828 35.9289 36.4583 33.3324 36.4583 30.625C36.4583 27.9176 35.3828 25.3211 33.4684 23.4066C31.5539 21.4922 28.9574 20.4167 26.25 20.4167ZM26.25 35H21.875V26.25H26.25C27.4103 26.25 28.5231 26.7109 29.3436 27.5314C30.1641 28.3519 30.625 29.4647 30.625 30.625C30.625 31.7853 30.1641 32.8981 29.3436 33.7186C28.5231 34.5391 27.4103 35 26.25 35Z" fill="#9898B3"/>
</g>
<defs>
<clipPath id="clip0_26_9">
<rect width="70" height="70" fill="white"/>
</clipPath>
</defs>
</svg>
