<svg width="67" height="68" viewBox="0 0 67 68" fill="none" xmlns="http://www.w3.org/2000/svg">
<g clip-path="url(#clip0_26_13)">
<path d="M59 6H9C6.23858 6 4 8.23858 4 11V61C4 63.7614 6.23858 66 9 66H59C61.7614 66 64 63.7614 64 61V11C64 8.23858 61.7614 6 59 6Z" stroke="#9898B3" stroke-width="4" stroke-linejoin="round"/>
<path d="M34 21H29C27.6739 21 26.4021 21.5268 25.4645 22.4645C24.5268 23.4021 24 24.6739 24 26C24 27.3261 24.5268 28.5979 25.4645 29.5355C26.4021 30.4732 27.6739 31 29 31M34 21V31M34 21H39C40.3261 21 41.5979 21.5268 42.5355 22.4645C43.4732 23.4021 44 24.6739 44 26C44 27.3261 43.4732 28.5979 42.5355 29.5355C41.5979 30.4732 40.3261 31 39 31H34M34 31H29M34 31V41M29 31C27.6739 31 26.4021 31.5268 25.4645 32.4645C24.5268 33.4021 24 34.6739 24 36C24 37.3261 24.5268 38.5979 25.4645 39.5355C26.4021 40.4732 27.6739 41 29 41M34 41H29M34 41V46C34 47.3261 33.4732 48.5978 32.5355 49.5355C31.5979 50.4732 30.3261 51 29 51C27.6739 51 26.4021 50.4732 25.4645 49.5355C24.5268 48.5978 24 47.3261 24 46C24 44.6739 24.5268 43.4021 25.4645 42.4645C26.4021 41.5268 27.6739 41 29 41" stroke="#9898B3" stroke-width="4" stroke-linejoin="round"/>
<path d="M34 36C34 34.6739 34.5268 33.4021 35.4645 32.4645C36.4021 31.5268 37.6739 31 39 31C40.3261 31 41.5979 31.5268 42.5355 32.4645C43.4732 33.4021 44 34.6739 44 36C44 37.3261 43.4732 38.5979 42.5355 39.5355C41.5979 40.4732 40.3261 41 39 41C37.6739 41 36.4021 40.4732 35.4645 39.5355C34.5268 38.5979 34 37.3261 34 36Z" stroke="#9898B3" stroke-width="4" stroke-linejoin="round"/>
</g>
<defs>
<clipPath id="clip0_26_13">
<rect width="67" height="68" fill="white"/>
</clipPath>
</defs>
</svg>
