<svg width="72" height="70" viewBox="0 0 72 70" fill="none" xmlns="http://www.w3.org/2000/svg">
<path fill-rule="evenodd" clip-rule="evenodd" d="M13.5625 2.1875C10.5457 2.1875 7.65239 3.38593 5.51916 5.51916C3.38593 7.65239 2.1875 10.5457 2.1875 13.5625V56.4375C2.1875 59.4543 3.38593 62.3476 5.51916 64.4808C7.65239 66.6141 10.5457 67.8125 13.5625 67.8125H56.4375C59.4543 67.8125 62.3476 66.6141 64.4808 64.4808C66.6141 62.3476 67.8125 59.4543 67.8125 56.4375V13.5625C67.8125 10.5457 66.6141 7.65239 64.4808 5.51916C62.3476 3.38593 59.4543 2.1875 56.4375 2.1875H13.5625ZM6.5625 13.5625C6.5625 11.706 7.3 9.92551 8.61275 8.61275C9.92551 7.3 11.706 6.5625 13.5625 6.5625H56.4375C58.294 6.5625 60.0745 7.3 61.3872 8.61275C62.7 9.92551 63.4375 11.706 63.4375 13.5625V56.4375C63.4375 58.294 62.7 60.0745 61.3872 61.3872C60.0745 62.7 58.294 63.4375 56.4375 63.4375H13.5625C11.706 63.4375 9.92551 62.7 8.61275 61.3872C7.3 60.0745 6.5625 58.294 6.5625 56.4375V13.5625ZM43.75 18.9583H49.5833V47.5125C47.9354 48.0842 43.8842 49.2333 40.8683 49.2333C37.1 49.2333 30.4208 47.2938 30.4208 38.2492C30.4208 30.4121 36.9454 27.4575 43.75 27.4575V18.9583ZM43.75 32.445V44.1117C41.3292 44.1117 36.4583 43.4904 36.4583 38.2783C36.4583 33.0662 41.3292 32.445 43.75 32.445ZM26.25 21.875H20.4167V48.125H26.25V21.875Z" fill="#9898B3"/>
</svg>
